<?xml version="1.0" encoding="UTF-8" standalone="no"?>
<!DOCTYPE svg PUBLIC "-//W3C//DTD SVG 1.1//EN" "http://www.w3.org/Graphics/SVG/1.1/DTD/svg11.dtd">
<svg width="100%" height="100%" viewBox="0 0 118 36" version="1.1" xmlns="http://www.w3.org/2000/svg" xmlns:xlink="http://www.w3.org/1999/xlink" xml:space="preserve" xmlns:serif="http://www.serif.com/" style="fill-rule:evenodd;clip-rule:evenodd;stroke-linejoin:round;stroke-miterlimit:1.41421;">
    <g transform="matrix(0.755952,0,0,0.758621,-52.1369,-538.828)">
        <path d="M220.789,726.014C221.898,726.014 222.794,726.909 222.794,728.018C222.794,729.128 221.898,730.026 220.789,730.026C219.679,730.026 218.783,729.128 218.783,728.018C218.783,726.909 219.679,726.014 220.789,726.014ZM220.789,726.245C219.809,726.245 219.012,727.039 219.012,728.018C219.012,729 219.809,729.796 220.789,729.796C221.769,729.796 222.564,729 222.564,728.018C222.564,727.039 221.769,726.245 220.789,726.245ZM221.774,729.128C221.673,729.123 221.574,729.112 221.471,729.112C221.372,729.112 221.27,729.123 221.167,729.128C220.594,728.076 220.585,728.071 220.557,728.071C220.536,728.071 220.536,728.081 220.536,728.16C220.536,728.485 220.554,729.01 220.569,729.123C220.486,729.118 220.396,729.106 220.306,729.106C220.223,729.106 220.133,729.118 220.044,729.123C220.044,729.044 220.076,728.715 220.076,727.874C220.076,727.19 220.06,726.966 220.044,726.826C220.189,726.832 220.341,726.838 220.48,726.838C220.58,726.838 220.726,726.826 220.944,726.826C221.348,726.826 221.601,727.063 221.601,727.391C221.601,727.712 221.354,727.948 221.057,727.991L221.774,729.128ZM220.726,727.006L220.554,727.006C220.54,727.41 220.54,727.661 220.54,727.928C220.692,727.928 221.074,727.928 221.074,727.431C221.074,727.146 220.895,727.006 220.726,727.006Z" style="fill:rgb(43,46,52);fill-rule:nonzero;"/>
        <path d="M128.499,731.746C127.989,735.412 127.772,739.101 127.529,742.767C127.141,742.694 126.751,742.645 126.388,742.645C126,742.645 125.636,742.694 125.246,742.767C126.265,737.184 127.067,731.6 127.748,726.018C128.087,726.09 128.402,726.138 128.741,726.138C129.059,726.138 129.398,726.09 129.714,726.018C131.484,729.876 133.549,734.198 135.321,737.621C137.239,734.004 139.23,729.876 140.977,726.018C141.317,726.09 141.681,726.138 142.021,726.138C142.361,726.138 142.7,726.09 143.041,726.018C143.673,731.6 144.52,739.344 145.128,742.767C144.473,742.694 143.818,742.645 143.162,742.645C142.507,742.645 141.827,742.694 141.146,742.767C140.977,739.393 140.565,735.265 140.177,731.504L140.128,731.504C138.306,735.265 136.51,739.004 134.762,742.767C134.618,742.743 134.447,742.718 134.302,742.718C134.155,742.718 133.986,742.743 133.84,742.767C132.116,739.101 130.369,735.412 128.549,731.746" style="fill:rgb(43,46,52);fill-rule:nonzero;"/>
        <path d="M156.149,725.701C161.295,725.701 165.348,728.517 165.348,734.367C165.348,739.174 161.489,743.083 156.075,743.083C150.954,743.083 146.826,740.46 146.826,734.393C146.826,729.609 150.515,725.701 156.149,725.701ZM156.075,727.086C152.75,727.086 150.808,730.436 150.808,734.611C150.808,739.781 153.186,741.576 155.905,741.576C158.818,741.576 161.367,739.15 161.367,733.858C161.367,729.658 159.208,727.086 156.075,727.086Z" style="fill:rgb(43,46,52);fill-rule:nonzero;"/>
        <path d="M168.358,732.742C168.358,730.022 168.309,728.154 168.164,726.017C168.697,726.066 169.353,726.138 170.154,726.138C170.955,726.138 171.611,726.066 172.145,726.017C172,728.154 171.951,730.022 171.951,732.742L171.951,736.044C171.951,737.839 171.974,739.684 172,740.946C173.82,740.946 175.688,740.849 177.557,740.631C177.509,740.971 177.46,741.214 177.46,741.724C177.46,742.234 177.509,742.476 177.557,742.765C176.683,742.743 175.544,742.645 173.31,742.645C169.353,742.645 168.697,742.719 168.164,742.765C168.309,740.631 168.358,738.761 168.358,736.044" style="fill:rgb(43,46,52);fill-rule:nonzero;"/>
        <path d="M180.592,732.742C180.592,730.022 180.543,728.154 180.398,726.017C180.931,726.066 181.587,726.138 182.389,726.138C183.189,726.138 183.846,726.066 184.378,726.017C184.233,728.154 184.184,730.022 184.184,732.742L184.184,736.044C184.184,738.761 184.233,740.631 184.378,742.765C183.846,742.719 183.189,742.645 182.389,742.645C181.587,742.645 180.931,742.719 180.398,742.765C180.543,740.631 180.592,738.761 180.592,736.044" style="fill:rgb(43,46,52);fill-rule:nonzero;"/>
        <path d="M188.676,726.017C189.04,726.091 189.403,726.139 189.768,726.139C190.132,726.139 190.497,726.091 190.859,726.017C194.355,729.876 197.826,733.712 201.396,737.574C201.396,733.712 201.396,727.11 201.225,726.017C201.589,726.091 201.954,726.139 202.316,726.139C202.682,726.139 203.046,726.091 203.41,726.017C203.021,733.081 203.021,736.31 203.021,742.766C202.682,742.694 202.365,742.645 202.026,742.645C201.686,742.645 201.371,742.694 201.081,742.766C197.754,738.835 194.211,734.902 190.471,730.969C190.424,732.79 190.424,734.805 190.424,736.625C190.424,740.508 190.497,741.869 190.568,742.766C190.18,742.694 189.792,742.645 189.428,742.645C189.064,742.645 188.676,742.694 188.31,742.766C188.433,742.063 188.797,735.801 188.797,730.847C188.797,728.662 188.7,727.182 188.676,726.017Z" style="fill:rgb(43,46,52);fill-rule:nonzero;"/>
        <path d="M220.717,742.766C219.941,742.718 219.263,742.646 218.582,742.646C217.901,742.646 217.198,742.718 216.519,742.766C216.008,741.116 215.45,739.442 214.843,737.792C213.8,737.766 212.78,737.742 211.735,737.742C210.887,737.742 210.06,737.766 209.213,737.792C208.556,739.442 208.022,741.092 207.561,742.766C207.172,742.718 206.809,742.646 206.421,742.646C206.033,742.646 205.667,742.718 205.206,742.766C206.394,740.073 210.037,731.431 212.124,725.896C212.44,725.945 212.731,726.018 213.046,726.018C213.362,726.018 213.654,725.945 213.97,725.896C216.031,731.431 218.874,738.811 220.717,742.766ZM214.285,736.358C213.581,734.393 212.903,732.474 212.124,730.582C211.298,732.474 210.546,734.393 209.844,736.358" style="fill:rgb(43,46,52);fill-rule:nonzero;"/>
        <path d="M131.936,751.189C131.198,751.174 130.476,751.132 129.737,751.132C129.012,751.132 128.274,751.162 127.538,751.189L127.538,752.013C127.538,753.634 127.566,754.747 127.652,756.023C127.334,755.994 126.943,755.951 126.466,755.951C125.989,755.951 125.599,755.994 125.28,756.023C125.367,754.747 125.395,753.634 125.395,752.013L125.395,750.046C125.395,748.425 125.367,747.311 125.28,746.037C125.599,746.066 125.989,746.109 126.466,746.109C126.943,746.109 127.334,746.066 127.652,746.037C127.566,747.297 127.538,748.41 127.538,750.018C128.029,750.031 128.724,750.046 129.752,750.046C130.778,750.046 131.386,750.031 131.936,750.018C131.936,748.41 131.907,747.297 131.819,746.037C132.139,746.066 132.529,746.109 133.007,746.109C133.484,746.109 133.876,746.066 134.193,746.037C134.107,747.311 134.077,748.425 134.077,750.046L134.077,752.013C134.077,753.634 134.107,754.747 134.193,756.023C133.876,755.994 133.484,755.951 133.007,755.951C132.529,755.951 132.139,755.994 131.819,756.023C131.907,754.747 131.936,753.634 131.936,752.013" style="fill:rgb(43,46,52);fill-rule:nonzero;"/>
        <path d="M137.508,750.046C137.508,748.425 137.48,747.311 137.391,746.037C138.246,746.052 139.114,746.111 139.969,746.111C141.387,746.111 142.602,746.081 142.993,746.037C142.963,746.211 142.934,746.384 142.934,746.645C142.934,746.947 142.963,747.079 142.993,747.297C141.893,747.224 140.157,747.122 139.722,747.122C139.649,748.177 139.649,749.222 139.649,750.277C140.909,750.248 141.834,750.218 142.934,750.163C142.876,750.494 142.863,750.626 142.863,750.812C142.863,750.972 142.891,751.102 142.934,751.406C141.834,751.319 140.75,751.276 139.649,751.276C139.649,751.883 139.635,752.507 139.635,753.127C139.635,753.736 139.649,754.357 139.679,754.938C140.764,754.938 141.877,754.879 142.993,754.747C142.963,754.951 142.934,755.096 142.934,755.4C142.934,755.704 142.963,755.849 142.993,756.022C142.472,756.006 141.792,755.951 140.46,755.951C138.102,755.951 137.711,755.994 137.391,756.022C137.48,754.747 137.508,753.635 137.508,752.013" style="fill:rgb(43,46,52);fill-rule:nonzero;"/>
        <path d="M154.02,756.022C153.556,755.994 153.152,755.95 152.745,755.95C152.341,755.95 151.922,755.994 151.516,756.022C151.212,755.038 150.88,754.039 150.517,753.055C149.894,753.042 149.287,753.027 148.665,753.027C148.158,753.027 147.666,753.042 147.16,753.055C146.768,754.039 146.453,755.025 146.176,756.022C145.945,755.994 145.728,755.95 145.497,755.95C145.265,755.95 145.048,755.994 144.773,756.022C145.483,754.416 147.652,749.264 148.896,745.966C149.086,745.994 149.26,746.038 149.446,746.038C149.635,746.038 149.808,745.994 149.996,745.966C151.225,749.264 152.92,753.663 154.02,756.022ZM150.185,752.202C149.765,751.029 149.36,749.888 148.896,748.758C148.405,749.888 147.957,751.029 147.537,752.202" style="fill:rgb(43,46,52);fill-rule:nonzero;"/>
        <path d="M156.494,750.046C156.494,748.425 156.466,747.311 156.377,746.037C156.696,746.066 157.087,746.111 157.565,746.111C158.042,746.111 158.434,746.066 158.751,746.037C158.664,747.311 158.634,748.425 158.634,750.046L158.634,752.013C158.634,753.085 158.649,754.184 158.664,754.938C159.75,754.938 160.864,754.879 161.978,754.747C161.948,754.951 161.919,755.096 161.919,755.4C161.919,755.704 161.948,755.849 161.978,756.022C161.458,756.006 160.777,755.951 159.446,755.951C157.087,755.951 156.696,755.994 156.377,756.022C156.466,754.747 156.494,753.635 156.494,752.013" style="fill:rgb(43,46,52);fill-rule:nonzero;"/>
        <path d="M165.351,748.396C165.351,747.846 165.351,747.325 165.306,747.123C164.742,747.123 163.528,747.21 162.659,747.311C162.702,747.094 162.732,746.892 162.732,746.675C162.732,746.457 162.702,746.255 162.659,746.037C163.977,746.081 164.628,746.11 166.422,746.11C168.216,746.11 168.868,746.081 170.097,746.037C170.054,746.255 170.024,746.457 170.024,746.675C170.024,746.892 170.054,747.094 170.097,747.311C169.316,747.21 168.1,747.123 167.521,747.123C167.492,747.325 167.492,747.846 167.492,748.396L167.492,752.015C167.492,753.634 167.521,754.748 167.608,756.022C167.29,755.993 166.899,755.95 166.422,755.95C165.944,755.95 165.554,755.993 165.236,756.022C165.322,754.748 165.351,753.634 165.351,752.015" style="fill:rgb(43,46,52);fill-rule:nonzero;"/>
        <path d="M179.214,751.189C178.476,751.174 177.753,751.132 177.014,751.132C176.289,751.132 175.552,751.162 174.816,751.189L174.816,752.013C174.816,753.634 174.844,754.747 174.929,756.023C174.611,755.994 174.22,755.951 173.744,755.951C173.266,755.951 172.876,755.994 172.557,756.023C172.644,754.747 172.674,753.634 172.674,752.013L172.674,750.046C172.674,748.425 172.644,747.311 172.557,746.037C172.876,746.066 173.266,746.109 173.744,746.109C174.22,746.109 174.611,746.066 174.929,746.037C174.844,747.297 174.816,748.41 174.816,750.018C175.306,750.031 176.003,750.046 177.029,750.046C178.056,750.046 178.663,750.031 179.214,750.018C179.214,748.41 179.185,747.297 179.096,746.037C179.416,746.066 179.808,746.109 180.285,746.109C180.763,746.109 181.153,746.066 181.471,746.037C181.385,747.311 181.355,748.425 181.355,750.046L181.355,752.013C181.355,753.634 181.385,754.747 181.471,756.023C181.153,755.994 180.763,755.951 180.285,755.951C179.808,755.951 179.416,755.994 179.096,756.023C179.185,754.747 179.214,753.634 179.214,752.013" style="fill:rgb(43,46,52);fill-rule:nonzero;"/>
        <path d="M192.744,754.344C192.585,754.747 192.47,755.168 192.426,755.574C191.66,755.977 190.661,756.21 189.474,756.21C186.118,756.21 184.134,754.112 184.134,751.376C184.134,747.384 186.84,745.85 189.878,745.85C190.892,745.85 192.165,746.154 192.831,746.558C192.643,747.036 192.542,747.543 192.498,748.035L192.296,748.035C191.574,747.138 190.834,746.747 189.808,746.747C188.259,746.747 186.509,748.092 186.509,751.16C186.509,754.141 188.273,755.313 189.937,755.313C190.863,755.313 191.934,754.879 192.556,754.226" style="fill:rgb(43,46,52);fill-rule:nonzero;"/>
        <path d="M203.366,756.022C202.903,755.994 202.498,755.95 202.093,755.95C201.688,755.95 201.268,755.994 200.862,756.022C200.558,755.038 200.226,754.039 199.864,753.055C199.242,753.042 198.634,753.027 198.012,753.027C197.505,753.027 197.013,753.042 196.507,753.055C196.117,754.039 195.797,755.025 195.522,756.022C195.292,755.994 195.074,755.95 194.844,755.95C194.611,755.95 194.394,755.994 194.119,756.022C194.829,754.416 196.999,749.264 198.243,745.966C198.432,745.994 198.604,746.038 198.793,746.038C198.982,746.038 199.154,745.994 199.344,745.966C200.574,749.264 202.266,753.663 203.366,756.022ZM199.531,752.202C199.111,751.029 198.706,749.888 198.243,748.758C197.752,749.888 197.304,751.029 196.884,752.202" style="fill:rgb(43,46,52);fill-rule:nonzero;"/>
        <path d="M208.115,751.42L207.984,751.42L207.984,752.014C207.984,753.635 208.013,754.749 208.099,756.022C207.781,755.994 207.39,755.95 206.914,755.95C206.435,755.95 206.045,755.994 205.726,756.022C205.813,754.749 205.841,753.635 205.841,752.014L205.841,750.046C205.841,748.425 205.813,747.312 205.726,746.038C206.045,746.066 206.435,746.109 206.914,746.109C207.434,746.109 208.056,746.038 209.039,746.038C210.502,746.038 211.036,746.168 211.543,746.529C212.123,746.949 212.484,747.585 212.484,748.44C212.484,749.844 211.673,750.741 210.241,751.102C211.166,752.738 212.268,754.386 213.324,756.022C212.889,755.994 212.455,755.95 212.021,755.95C211.586,755.95 211.138,755.994 210.704,756.022L208.115,751.42ZM208.026,746.862C207.997,748.178 207.984,749.481 207.984,750.799C208.099,750.813 208.2,750.827 208.301,750.827C209.575,750.827 210.269,750.117 210.269,748.759C210.269,747.05 209.605,746.862 208.026,746.862Z" style="fill:rgb(43,46,52);fill-rule:nonzero;"/>
        <path d="M215.537,750.046C215.537,748.425 215.508,747.311 215.422,746.037C216.275,746.052 217.143,746.111 217.998,746.111C219.415,746.111 220.63,746.081 221.021,746.037C220.991,746.211 220.963,746.384 220.963,746.645C220.963,746.947 220.991,747.079 221.021,747.297C219.922,747.224 218.184,747.122 217.75,747.122C217.678,748.177 217.678,749.222 217.678,750.277C218.937,750.248 219.864,750.218 220.963,750.163C220.905,750.494 220.891,750.626 220.891,750.812C220.891,750.972 220.92,751.102 220.963,751.406C219.864,751.319 218.779,751.276 217.678,751.276C217.678,751.883 217.664,752.507 217.664,753.127C217.664,753.736 217.678,754.357 217.707,754.938C218.792,754.938 219.906,754.879 221.021,754.747C220.991,754.951 220.963,755.096 220.963,755.4C220.963,755.704 220.991,755.849 221.021,756.022C220.5,756.006 219.82,755.951 218.489,755.951C216.13,755.951 215.74,755.994 215.422,756.022C215.508,754.747 215.537,753.635 215.537,752.013" style="fill:rgb(43,46,52);fill-rule:nonzero;"/>
        <path d="M121.533,755.993L106.091,755.993C106.091,755.993 106.117,733.951 106.091,731.741C106.04,727.494 100.806,726.022 100.806,726.022L111.164,726.022C114.292,726.022 121.519,727.323 121.519,733.1C121.519,735.483 121.533,755.993 121.533,755.993Z" style="fill:rgb(0,159,171);fill-rule:nonzero;"/>
        <path d="M108.403,724.188C111.642,724.188 114.267,721.428 114.267,718.025C114.267,714.62 111.642,711.864 108.403,711.864C105.16,711.864 102.536,714.62 102.536,718.025C102.536,721.428 105.16,724.188 108.403,724.188Z" style="fill:rgb(0,159,171);fill-rule:nonzero;"/>
        <path d="M104.274,755.989L88.855,755.989C88.855,755.989 88.884,733.952 88.855,731.746C88.8,727.497 83.576,726.025 83.576,726.025L93.917,726.025C97.043,726.025 104.261,727.326 104.261,733.103C104.261,735.485 104.274,755.989 104.274,755.989Z" style="fill:rgb(0,159,171);fill-rule:nonzero;"/>
        <path d="M91.306,724.168C94.544,724.168 97.173,721.408 97.173,718.005C97.173,714.6 94.544,711.844 91.306,711.844C88.067,711.844 85.438,714.6 85.438,718.005C85.438,721.408 88.067,724.168 91.306,724.168Z" style="fill:rgb(0,159,171);fill-rule:nonzero;"/>
        <path d="M87.058,755.992L73.957,755.992C73.957,755.992 73.981,741.638 73.957,739.979C73.915,736.792 69.999,735.684 69.999,735.684L79.289,735.684C81.632,735.684 87.047,736.664 87.047,741.001C87.047,742.785 87.058,755.992 87.058,755.992Z" style="fill:rgb(0,159,171);fill-rule:nonzero;"/>
        <path d="M76.27,733.816C78.702,733.816 80.671,731.747 80.671,729.192C80.671,726.641 78.702,724.574 76.27,724.574C73.842,724.574 71.873,726.641 71.873,729.192C71.873,731.747 73.842,733.816 76.27,733.816Z" style="fill:rgb(0,159,171);fill-rule:nonzero;"/>
    </g>
</svg>
